<?xml version="1.0" encoding="UTF-8"?>
<svg xmlns="http://www.w3.org/2000/svg" viewBox="0 0 100 90" role="img" aria-label="Heart icon">
  <defs>
    <radialGradient id="heartGlow" cx="32%" cy="28%" r="60%">
      <stop offset="0%" stop-color="#FFE8F0"/>
      <stop offset="35%" stop-color="#FFB1D3"/>
      <stop offset="65%" stop-color="#FF7AB6"/>
      <stop offset="90%" stop-color="#FF5AA8"/>
      <stop offset="100%" stop-color="#FF4FA3"/>
    </radialGradient>
    <linearGradient id="sheen" x1="0" y1="0" x2="0" y2="1">
      <stop offset="0%" stop-color="#FFFFFF" stop-opacity="0.6"/>
      <stop offset="25%" stop-color="#FFFFFF" stop-opacity="0.15"/>
      <stop offset="100%" stop-color="#FFFFFF" stop-opacity="0"/>
    </linearGradient>
    <filter id="shadow" x="-50%" y="-50%" width="200%" height="200%">
      <feDropShadow dx="0" dy="2" stdDeviation="2" flood-color="#FF9AC7" flood-opacity="0.55"/>
    </filter>
  </defs>
  <g filter="url(#shadow)">
    <path d="M50 83 L16 52 C6 43 0 34 0 24 C0 9 11 0 24 0 C33 0 41 5 50 13 C59 5 67 0 76 0 C89 0 100 9 100 24 C100 34 94 43 84 52 Z" fill="url(#heartGlow)"/>
    <path d="M50 83 L16 52 C6 43 0 34 0 24 C0 9 11 0 24 0 C33 0 41 5 50 13 C59 5 67 0 76 0 C89 0 100 9 100 24 C100 34 94 43 84 52 Z" fill="url(#sheen)"/>
  </g>
</svg>
